# xmcd
#
# Track frame offsets:
#	150
#	14960
#	27305
#	41897
#	56032
#	68547
#	83080
#	99960
#	112555
#	126092
#	140312
#	155157
#	169370
#	183490
#	196467
#	210492
#	223722
#	237425
#	249367
#	264452
#
# Disc length: 3681 seconds
#
# Revision: 0
# Processed by: cddbd v1.5.1PL2 Copyright (c) Steve Scherf et al.
# Submitted via: audiograbber 1.83.01
#
DISCID=1f0e5f14
DTITLE=Connie Francis - The World Of Connie Francis
DYEAR=2001
DGENRE=Pop
TTITLE0=The Look Of Love
TTITLE1=Moon River
TTITLE2=True Love
TTITLE3=Strangers In The Night
TTITLE4=White Cliffs Of Dover
TTITLE5=Tammy
TTITLE6=Hold Me,Thrill Me, Kiss Me
TTITLE7=Love Is A Many Splendoured Thing
TTITLE8=What Kind Of Fool Am I
TTITLE9=Love Me Tender
TTITLE10=Stardust
TTITLE11=Young At Heart
TTITLE12=Three Coins In The Fountain
TTITLE13=My Heart Cries For You
TTITLE14=Am I Blue (Over You)
TTITLE15=My Foolish Heart
TTITLE16=The Wayward Wind
TTITLE17=I Wish I Had A Wooden Heart
TTITLE18=The Last Wattz
TTITLE19=Trains And Boats And Planes,
EXTD=
EXTT0=
EXTT1=
EXTT2=
EXTT3=
EXTT4=
EXTT5=
EXTT6=
EXTT7=
EXTT8=
EXTT9=
EXTT10=
EXTT11=
EXTT12=
EXTT13=
EXTT14=
EXTT15=
EXTT16=
EXTT17=
EXTT18=
EXTT19=
PLAYORDER=
